<?xml version="1.0" standalone="no"?>
<!DOCTYPE svg PUBLIC "-//W3C//DTD SVG 20010904//EN"
 "http://www.w3.org/TR/2001/REC-SVG-20010904/DTD/svg10.dtd">
<svg version="1.0" xmlns="http://www.w3.org/2000/svg"
 width="61.000000pt" height="48.000000pt" viewBox="0 0 61.000000 48.000000"
 preserveAspectRatio="xMidYMid meet">

<g transform="translate(0.000000,48.000000) scale(0.100000,-0.100000)"
fill="#000000" stroke="none">
<path d="M3 453 c-5 -11 3 -24 25 -41 25 -19 29 -28 23 -45 -18 -46 -22 -126
-11 -187 14 -74 44 -140 65 -140 18 0 18 -1 -1 45 -8 20 -20 62 -25 93 -12 61
-3 182 12 182 6 0 29 -15 53 -32 41 -31 44 -36 48 -90 7 -95 67 -135 162 -108
43 12 45 11 94 -25 32 -24 48 -43 45 -52 -4 -10 0 -14 14 -11 10 1 32 -5 47
-15 54 -36 78 6 25 44 -25 18 -29 26 -24 48 19 74 23 135 14 193 -13 78 -43
148 -63 148 -19 0 -19 1 -1 -43 25 -60 36 -161 26 -228 -6 -34 -12 -64 -15
-66 -2 -3 -25 10 -50 29 l-45 33 -1 123 c0 112 -2 123 -17 120 -15 -3 -19 -18
-23 -106 l-5 -102 -72 52 -73 53 0 52 c0 46 -3 53 -19 53 -15 0 -21 -8 -23
-35 l-3 -35 -38 27 c-31 22 -37 32 -32 50 4 16 1 23 -9 23 -8 0 -18 -5 -21
-11 -5 -7 -15 -5 -31 5 -30 20 -43 20 -51 -1z m300 -242 c26 -19 47 -38 47
-43 0 -13 -74 -9 -93 5 -10 6 -20 30 -24 51 -7 44 -8 44 70 -13z"/>
</g>
</svg>
