<?xml version="1.0" encoding="utf-8"?>
<!-- Generator: Adobe Illustrator 21.0.0, SVG Export Plug-In . SVG Version: 6.00 Build 0)  -->
<svg version="1.1" id="Layer_1" xmlns="http://www.w3.org/2000/svg" xmlns:xlink="http://www.w3.org/1999/xlink" x="0px" y="0px"
	 viewBox="0 0 512 512" style="enable-background:new 0 0 512 512;" xml:space="preserve">
<g>
	<path d="M173.7,363.4h-66.3v-66.3c0-2.5-2.1-4.6-4.6-4.6H75.4c-2.5,0-4.6,2.1-4.6,4.6v66.3H4.6c-2.5,0-4.6,2.1-4.6,4.6v27.4
		c0,2.5,2.1,4.6,4.6,4.6h66.3v66.3c0,2.5,2.1,4.6,4.6,4.6h27.4c2.5,0,4.6-2.1,4.6-4.6V400h66.3c2.5,0,4.6-2.1,4.6-4.6V368
		C178.3,365.5,176.2,363.4,173.7,363.4z"/>
	<path d="M484.6,122.5l-73.1,42.1V77.7c0-20.2-16.4-36.6-36.6-36.6H36.6C16.4,41.1,0,57.5,0,77.7v201.1h41.1V82.3h329.1v320H219.4
		v41.1h155.4c20.2,0,36.6-16.4,36.6-36.6V320l73.1,42.1c12.2,7,27.4-1.8,27.4-15.8V138.3C512,124.2,496.7,115.4,484.6,122.5z
		 M470.9,306.9l-59.4-34.2v-60.7l59.4-34.2V306.9z"/>
	<path d="M146.3,155.4c2.5,0,4.6-2.1,4.6-4.6v-27.4c0-2.5-2.1-4.6-4.6-4.6h-64c-2.5,0-4.6,2.1-4.6,4.6v27.4c0,2.5,2.1,4.6,4.6,4.6
		H146.3z"/>
</g>
</svg>
