<?xml version="1.0" standalone="no"?>
<!DOCTYPE svg PUBLIC "-//W3C//DTD SVG 20010904//EN"
 "http://www.w3.org/TR/2001/REC-SVG-20010904/DTD/svg10.dtd">
<svg version="1.0" xmlns="http://www.w3.org/2000/svg"
 width="916.000000pt" height="980.000000pt" viewBox="0 0 916.000000 980.000000"
 preserveAspectRatio="xMidYMid meet">
<metadata>
Created by potrace 1.16, written by Peter Selinger 2001-2019
</metadata>
<g transform="translate(0.000000,980.000000) scale(0.100000,-0.100000)"
fill="#000000" stroke="none">
<path d="M865 9793 c-331 -46 -614 -252 -759 -554 -25 -51 -56 -130 -68 -174
l-23 -80 -3 -3398 c-2 -3297 -2 -3401 17 -3490 42 -205 135 -373 289 -518 49
-46 125 -106 170 -133 93 -55 244 -110 347 -126 46 -7 322 -10 810 -8 l740 3
50 24 c197 98 246 354 97 513 -24 26 -70 60 -101 75 l-56 28 -735 5 c-727 5
-736 5 -782 27 -66 30 -133 96 -165 162 l-28 56 0 3350 0 3350 23 46 c37 75
87 125 160 161 l67 33 3005 0 c2880 0 3007 -1 3057 -18 66 -23 146 -94 181
-161 l27 -51 5 -1060 c6 -1169 1 -1095 67 -1185 67 -90 151 -133 263 -134 66
-1 84 3 142 32 76 37 120 82 157 162 l26 55 0 1080 c0 1018 -1 1085 -19 1160
-86 370 -348 641 -724 748 l-77 22 -3065 1 c-1686 1 -3078 -1 -3095 -3z"/>
<path d="M1533 7822 c-217 -76 -289 -352 -136 -522 25 -28 69 -63 97 -78 l51
-27 2367 -3 2367 -2 55 21 c70 26 139 92 174 167 22 47 27 71 27 137 0 67 -4
89 -28 136 -32 66 -99 132 -165 162 l-47 22 -2355 2 c-2240 2 -2358 2 -2407
-15z"/>
<path d="M1533 5862 c-217 -76 -289 -352 -136 -522 25 -28 69 -63 97 -78 l51
-27 750 0 750 0 43 23 c63 33 114 84 148 144 26 48 29 62 29 148 0 80 -4 103
-24 144 -33 66 -91 122 -160 155 l-56 26 -720 2 c-671 2 -724 1 -772 -15z"/>
<path d="M5690 5874 c-581 -55 -1087 -266 -1512 -633 -689 -595 -1017 -1507
-867 -2409 41 -249 115 -474 234 -717 203 -415 529 -782 920 -1038 857 -559
1965 -562 2816 -6 68 45 141 95 162 112 l39 30 586 -585 c656 -654 618 -623
762 -623 178 1 308 125 318 304 3 61 0 88 -18 136 -21 57 -48 86 -601 640
-319 319 -579 584 -579 589 0 4 27 44 59 89 456 631 605 1444 399 2187 -93
337 -269 683 -485 954 -80 101 -322 339 -424 418 -370 287 -789 465 -1254 534
-97 14 -465 26 -555 18z m355 -655 c469 -40 897 -238 1226 -568 793 -796 762
-2071 -69 -2833 -419 -385 -1010 -570 -1574 -492 -744 102 -1361 612 -1598
1320 -120 359 -134 746 -40 1109 238 921 1113 1545 2055 1464z"/>
<path d="M1533 3902 c-169 -60 -259 -247 -200 -419 25 -72 96 -149 172 -184
l60 -29 397 0 c377 0 400 1 452 21 70 26 139 92 174 167 36 76 38 192 5 264
-30 66 -96 133 -162 165 l-56 28 -395 2 c-359 3 -400 1 -447 -15z"/>
</g>
</svg>
