<?xml version="1.0" standalone="no"?>
<!DOCTYPE svg PUBLIC "-//W3C//DTD SVG 20010904//EN"
 "http://www.w3.org/TR/2001/REC-SVG-20010904/DTD/svg10.dtd">
<svg version="1.0" xmlns="http://www.w3.org/2000/svg"
 width="840.000000pt" height="859.000000pt" viewBox="0 0 840.000000 859.000000"
 preserveAspectRatio="xMidYMid meet">
<metadata>
Created by potrace 1.16, written by Peter Selinger 2001-2019
</metadata>
<g transform="translate(0.000000,859.000000) scale(0.100000,-0.100000)"
fill="#000000" stroke="none">
<path d="M1165 8454 c-170 -26 -368 -100 -506 -189 -280 -181 -467 -424 -567
-736 -66 -205 -62 -6 -62 -3234 0 -2611 2 -2939 16 -3033 59 -397 289 -741
638 -952 145 -88 318 -149 492 -175 97 -14 333 -15 2189 -13 l2080 3 40 22
c22 12 54 36 72 55 114 118 76 320 -74 394 -37 18 -101 19 -2143 24 l-2105 5
-75 21 c-162 47 -288 122 -399 239 -115 121 -194 281 -220 445 -15 91 -15
5840 0 5930 29 181 104 325 239 460 135 135 279 210 460 239 90 15 5839 15
5930 0 353 -56 633 -333 695 -684 13 -77 15 -349 15 -2140 l0 -2053 28 -53
c97 -185 347 -179 448 11 18 34 19 108 22 2105 2 1847 1 2082 -13 2179 -55
377 -266 709 -585 922 -111 73 -208 120 -341 162 -205 66 -4 62 -3245 61
-2439 -1 -2954 -3 -3029 -15z"/>
<path d="M2520 6474 c-250 -48 -439 -234 -491 -484 -15 -73 -6 -209 20 -292
12 -37 44 -101 72 -142 116 -174 288 -266 496 -266 166 0 301 56 419 174 116
116 174 255 174 418 0 325 -249 584 -570 594 -52 1 -106 0 -120 -2z"/>
<path d="M5528 5988 c-336 -434 -1022 -1320 -1103 -1423 -56 -71 -233 -301
-395 -510 -161 -209 -298 -386 -305 -393 -9 -10 -63 73 -255 400 -134 227
-248 419 -254 426 -10 10 -59 -35 -227 -205 -117 -120 -566 -573 -996 -1008
l-783 -790 1635 -3 1636 -2 77 78 c126 129 267 211 434 253 72 18 122 22 391
26 l307 5 0 267 c0 302 11 401 59 530 17 46 52 118 78 160 66 106 207 244 308
300 44 25 81 45 83 46 1 1 -16 63 -38 137 -22 75 -40 142 -40 148 0 18 -531
1623 -540 1633 -4 5 -36 -29 -72 -75z"/>
<path d="M6478 3685 c-25 -13 -60 -41 -77 -62 -61 -74 -61 -72 -61 -784 l0
-648 -667 -3 c-736 -3 -699 0 -775 -67 -69 -60 -97 -154 -73 -245 19 -71 54
-119 114 -154 l46 -27 675 -5 675 -5 5 -670 5 -670 23 -47 c72 -146 264 -184
386 -77 86 76 80 27 86 789 l5 675 680 5 c644 5 682 6 710 24 80 50 122 114
132 196 8 71 -12 133 -63 189 -81 90 -38 86 -796 89 l-668 3 0 665 c0 548 -2
671 -14 698 -20 49 -85 116 -131 137 -60 28 -157 25 -217 -6z"/>
</g>
</svg>
